<mxfile host="app.diagrams.net" agent="Mozilla/5.0 (X11; Ubuntu; Linux x86_64; rv:139.0) Gecko/20100101 Firefox/139.0" version="27.1.5">
  <diagram name="Page-1" id="33f5RHUezdbJNKuXMzW8">
    <mxGraphModel dx="223" dy="125" grid="1" gridSize="10" guides="1" tooltips="1" connect="1" arrows="1" fold="1" page="1" pageScale="1" pageWidth="850" pageHeight="1100" math="0" shadow="0">
      <root>
        <mxCell id="0" />
        <mxCell id="1" parent="0" />
        <mxCell id="2Ir9cTfWj3Ynbl9pCm2M-38" value="" style="rounded=0;whiteSpace=wrap;html=1;fillColor=none;dashed=1;dashPattern=1 4;strokeColor=light-dark(#000000,#141414);" vertex="1" parent="1">
          <mxGeometry x="420" y="300" width="210" height="580" as="geometry" />
        </mxCell>
        <mxCell id="2Ir9cTfWj3Ynbl9pCm2M-37" value="" style="rounded=0;whiteSpace=wrap;html=1;fillColor=none;strokeColor=light-dark(#000000,#141414);" vertex="1" parent="1">
          <mxGeometry x="154" y="540.5" width="258" height="72.5" as="geometry" />
        </mxCell>
        <mxCell id="vIsbcEsRfZGvR6spl5Cv-2" value="&lt;div&gt;Shem&lt;/div&gt;" style="rounded=1;whiteSpace=wrap;html=1;fillColor=#0050ef;fontColor=light-dark(#000000,#1A1A1A);strokeColor=light-dark(#000000,#141414);glass=0;shadow=0;" parent="1" vertex="1">
          <mxGeometry x="385" y="340" width="60" height="20" as="geometry" />
        </mxCell>
        <mxCell id="vIsbcEsRfZGvR6spl5Cv-5" value="Arphaxad" style="rounded=1;whiteSpace=wrap;html=1;fillColor=#0050ef;fontColor=light-dark(#000000,#1A1A1A);strokeColor=light-dark(#000000,#141414);glass=0;shadow=0;" parent="1" vertex="1">
          <mxGeometry x="425" y="385" width="60" height="20" as="geometry" />
        </mxCell>
        <mxCell id="vIsbcEsRfZGvR6spl5Cv-6" value="" style="endArrow=none;dashed=1;html=1;rounded=0;entryX=0.5;entryY=1;entryDx=0;entryDy=0;exitX=0.5;exitY=0;exitDx=0;exitDy=0;strokeColor=light-dark(#000000,#141414);fontColor=light-dark(#000000,#1A1A1A);" parent="1" source="vIsbcEsRfZGvR6spl5Cv-5" target="vIsbcEsRfZGvR6spl5Cv-2" edge="1">
          <mxGeometry width="50" height="50" relative="1" as="geometry">
            <mxPoint x="332.5" y="400" as="sourcePoint" />
            <mxPoint x="389.5" y="370" as="targetPoint" />
          </mxGeometry>
        </mxCell>
        <mxCell id="vIsbcEsRfZGvR6spl5Cv-10" value="&lt;b&gt;&lt;font style=&quot;font-size: 14px;&quot;&gt;YEAR&lt;/font&gt;&lt;/b&gt;" style="text;html=1;align=center;verticalAlign=middle;whiteSpace=wrap;rounded=0;strokeColor=light-dark(#000000,#141414);fontColor=light-dark(#000000,#171717);" parent="1" vertex="1">
          <mxGeometry x="492.5" y="307" width="60" height="20" as="geometry" />
        </mxCell>
        <mxCell id="vIsbcEsRfZGvR6spl5Cv-12" value="1558" style="text;html=1;align=center;verticalAlign=middle;whiteSpace=wrap;rounded=0;strokeColor=none;fontColor=light-dark(#000000,#171717);" parent="1" vertex="1">
          <mxGeometry x="502.5" y="350" width="40" height="20" as="geometry" />
        </mxCell>
        <mxCell id="vIsbcEsRfZGvR6spl5Cv-13" value="1658" style="text;html=1;align=center;verticalAlign=middle;whiteSpace=wrap;rounded=0;strokeColor=none;fontColor=light-dark(#000000,#171717);" parent="1" vertex="1">
          <mxGeometry x="502.5" y="385" width="40" height="20" as="geometry" />
        </mxCell>
        <mxCell id="vIsbcEsRfZGvR6spl5Cv-14" value="Salah" style="rounded=1;whiteSpace=wrap;html=1;fillColor=#0050ef;fontColor=light-dark(#000000,#1A1A1A);strokeColor=light-dark(#000000,#141414);glass=0;shadow=0;" parent="1" vertex="1">
          <mxGeometry x="425" y="421" width="60" height="20" as="geometry" />
        </mxCell>
        <mxCell id="vIsbcEsRfZGvR6spl5Cv-15" value="" style="endArrow=none;dashed=1;html=1;rounded=0;exitX=0.5;exitY=0;exitDx=0;exitDy=0;strokeColor=light-dark(#000000,#141414);entryX=0.5;entryY=1;entryDx=0;entryDy=0;fontColor=light-dark(#000000,#1A1A1A);" parent="1" source="vIsbcEsRfZGvR6spl5Cv-14" target="vIsbcEsRfZGvR6spl5Cv-5" edge="1">
          <mxGeometry width="50" height="50" relative="1" as="geometry">
            <mxPoint x="332.5" y="440" as="sourcePoint" />
            <mxPoint x="447.5" y="420" as="targetPoint" />
          </mxGeometry>
        </mxCell>
        <mxCell id="vIsbcEsRfZGvR6spl5Cv-16" value="&lt;div&gt;1693&lt;/div&gt;" style="text;html=1;align=center;verticalAlign=middle;whiteSpace=wrap;rounded=0;strokeColor=none;fontColor=light-dark(#000000,#171717);" parent="1" vertex="1">
          <mxGeometry x="502.5" y="421" width="40" height="20" as="geometry" />
        </mxCell>
        <mxCell id="vIsbcEsRfZGvR6spl5Cv-17" value="Eber" style="rounded=1;whiteSpace=wrap;html=1;fillColor=#0050ef;fontColor=light-dark(#000000,#1A1A1A);strokeColor=light-dark(#000000,#141414);glass=0;shadow=0;" parent="1" vertex="1">
          <mxGeometry x="422.5" y="456" width="65" height="20" as="geometry" />
        </mxCell>
        <mxCell id="vIsbcEsRfZGvR6spl5Cv-18" value="" style="endArrow=none;dashed=1;html=1;rounded=0;exitX=0.5;exitY=0;exitDx=0;exitDy=0;strokeColor=light-dark(#000000,#141414);entryX=0.5;entryY=1;entryDx=0;entryDy=0;fontColor=light-dark(#000000,#1A1A1A);" parent="1" source="vIsbcEsRfZGvR6spl5Cv-17" target="vIsbcEsRfZGvR6spl5Cv-14" edge="1">
          <mxGeometry width="50" height="50" relative="1" as="geometry">
            <mxPoint x="332.5" y="480" as="sourcePoint" />
            <mxPoint x="447.5" y="460" as="targetPoint" />
          </mxGeometry>
        </mxCell>
        <mxCell id="vIsbcEsRfZGvR6spl5Cv-19" value="1723" style="text;html=1;align=center;verticalAlign=middle;whiteSpace=wrap;rounded=0;strokeColor=none;fontColor=light-dark(#000000,#171717);" parent="1" vertex="1">
          <mxGeometry x="502.5" y="456" width="40" height="20" as="geometry" />
        </mxCell>
        <mxCell id="vIsbcEsRfZGvR6spl5Cv-20" value="Peleg" style="rounded=1;whiteSpace=wrap;html=1;fillColor=#0050ef;fontColor=light-dark(#000000,#1A1A1A);strokeColor=light-dark(#000000,#141414);glass=0;shadow=0;" parent="1" vertex="1">
          <mxGeometry x="425" y="491" width="60" height="20" as="geometry" />
        </mxCell>
        <mxCell id="vIsbcEsRfZGvR6spl5Cv-21" value="" style="endArrow=none;dashed=1;html=1;rounded=0;exitX=0.5;exitY=0;exitDx=0;exitDy=0;strokeColor=light-dark(#000000,#141414);entryX=0.5;entryY=1;entryDx=0;entryDy=0;fontColor=light-dark(#000000,#1A1A1A);" parent="1" source="vIsbcEsRfZGvR6spl5Cv-20" target="vIsbcEsRfZGvR6spl5Cv-17" edge="1">
          <mxGeometry width="50" height="50" relative="1" as="geometry">
            <mxPoint x="332.5" y="520" as="sourcePoint" />
            <mxPoint x="447.5" y="500" as="targetPoint" />
          </mxGeometry>
        </mxCell>
        <mxCell id="vIsbcEsRfZGvR6spl5Cv-22" value="1757" style="text;html=1;align=center;verticalAlign=middle;whiteSpace=wrap;rounded=0;strokeColor=none;fontColor=light-dark(#000000,#171717);" parent="1" vertex="1">
          <mxGeometry x="502.5" y="491" width="40" height="20" as="geometry" />
        </mxCell>
        <mxCell id="vIsbcEsRfZGvR6spl5Cv-23" value="Reu" style="rounded=1;whiteSpace=wrap;html=1;fillColor=#0050ef;fontColor=light-dark(#000000,#1A1A1A);strokeColor=light-dark(#000000,#141414);glass=0;shadow=0;" parent="1" vertex="1">
          <mxGeometry x="425" y="526" width="60" height="20" as="geometry" />
        </mxCell>
        <mxCell id="vIsbcEsRfZGvR6spl5Cv-24" value="" style="endArrow=none;dashed=1;html=1;rounded=0;exitX=0.5;exitY=0;exitDx=0;exitDy=0;strokeColor=light-dark(#000000,#141414);entryX=0.5;entryY=1;entryDx=0;entryDy=0;fontColor=light-dark(#000000,#1A1A1A);" parent="1" source="vIsbcEsRfZGvR6spl5Cv-23" target="vIsbcEsRfZGvR6spl5Cv-20" edge="1">
          <mxGeometry width="50" height="50" relative="1" as="geometry">
            <mxPoint x="332.5" y="560" as="sourcePoint" />
            <mxPoint x="447.5" y="540" as="targetPoint" />
          </mxGeometry>
        </mxCell>
        <mxCell id="vIsbcEsRfZGvR6spl5Cv-25" value="1787" style="text;html=1;align=center;verticalAlign=middle;whiteSpace=wrap;rounded=0;strokeColor=none;fontColor=light-dark(#000000,#171717);" parent="1" vertex="1">
          <mxGeometry x="502.5" y="526" width="40" height="20" as="geometry" />
        </mxCell>
        <mxCell id="vIsbcEsRfZGvR6spl5Cv-26" value="Serug" style="rounded=1;whiteSpace=wrap;html=1;fillColor=#0050ef;fontColor=light-dark(#000000,#1A1A1A);strokeColor=light-dark(#000000,#141414);glass=0;shadow=0;" parent="1" vertex="1">
          <mxGeometry x="425" y="561" width="60" height="20" as="geometry" />
        </mxCell>
        <mxCell id="vIsbcEsRfZGvR6spl5Cv-27" value="" style="endArrow=none;dashed=1;html=1;rounded=0;exitX=0.5;exitY=0;exitDx=0;exitDy=0;strokeColor=light-dark(#000000,#141414);entryX=0.5;entryY=1;entryDx=0;entryDy=0;fontColor=light-dark(#000000,#1A1A1A);" parent="1" source="vIsbcEsRfZGvR6spl5Cv-26" target="vIsbcEsRfZGvR6spl5Cv-23" edge="1">
          <mxGeometry width="50" height="50" relative="1" as="geometry">
            <mxPoint x="332.5" y="600" as="sourcePoint" />
            <mxPoint x="447.5" y="580" as="targetPoint" />
          </mxGeometry>
        </mxCell>
        <mxCell id="vIsbcEsRfZGvR6spl5Cv-28" value="1819" style="text;html=1;align=center;verticalAlign=middle;whiteSpace=wrap;rounded=0;strokeColor=none;fontColor=light-dark(#000000,#171717);" parent="1" vertex="1">
          <mxGeometry x="502.5" y="561" width="40" height="20" as="geometry" />
        </mxCell>
        <mxCell id="vIsbcEsRfZGvR6spl5Cv-29" value="Nahor" style="rounded=1;whiteSpace=wrap;html=1;fillColor=#0050ef;fontColor=light-dark(#000000,#1A1A1A);strokeColor=light-dark(#000000,#141414);glass=0;shadow=0;" parent="1" vertex="1">
          <mxGeometry x="425" y="596" width="60" height="20" as="geometry" />
        </mxCell>
        <mxCell id="vIsbcEsRfZGvR6spl5Cv-30" value="" style="endArrow=none;dashed=1;html=1;rounded=0;exitX=0.5;exitY=0;exitDx=0;exitDy=0;strokeColor=light-dark(#000000,#141414);entryX=0.5;entryY=1;entryDx=0;entryDy=0;fontColor=light-dark(#000000,#1A1A1A);" parent="1" source="vIsbcEsRfZGvR6spl5Cv-29" target="vIsbcEsRfZGvR6spl5Cv-26" edge="1">
          <mxGeometry width="50" height="50" relative="1" as="geometry">
            <mxPoint x="332.5" y="640" as="sourcePoint" />
            <mxPoint x="447.5" y="620" as="targetPoint" />
          </mxGeometry>
        </mxCell>
        <mxCell id="vIsbcEsRfZGvR6spl5Cv-31" value="&lt;div&gt;1849&lt;/div&gt;" style="text;html=1;align=center;verticalAlign=middle;whiteSpace=wrap;rounded=0;strokeColor=none;fontColor=light-dark(#000000,#171717);" parent="1" vertex="1">
          <mxGeometry x="502.5" y="596" width="40" height="20" as="geometry" />
        </mxCell>
        <mxCell id="vIsbcEsRfZGvR6spl5Cv-33" value="" style="endArrow=none;dashed=1;html=1;rounded=0;exitX=0.5;exitY=0;exitDx=0;exitDy=0;strokeColor=light-dark(#000000,#141414);entryX=0.5;entryY=1;entryDx=0;entryDy=0;fontColor=light-dark(#000000,#1A1A1A);" parent="1" source="aJoBD9lFihhosE0fkz8R-1" target="vIsbcEsRfZGvR6spl5Cv-29" edge="1">
          <mxGeometry width="50" height="50" relative="1" as="geometry">
            <mxPoint x="455" y="682" as="sourcePoint" />
            <mxPoint x="455.5" y="660" as="targetPoint" />
          </mxGeometry>
        </mxCell>
        <mxCell id="vIsbcEsRfZGvR6spl5Cv-38" value="Arphaxad" style="rounded=1;whiteSpace=wrap;html=1;fillColor=#e51400;fontColor=light-dark(#000000,#1A1A1A);strokeColor=light-dark(#000000,#141414);align=center;" parent="1" vertex="1">
          <mxGeometry x="562.5" y="770" width="57.5" height="19" as="geometry" />
        </mxCell>
        <mxCell id="vIsbcEsRfZGvR6spl5Cv-39" value="" style="endArrow=classic;html=1;rounded=0;exitX=1;exitY=0.5;exitDx=0;exitDy=0;strokeColor=light-dark(#000000,#171717);fontColor=light-dark(#000000,#E9E9E9);" parent="1" source="vIsbcEsRfZGvR6spl5Cv-20" target="vIsbcEsRfZGvR6spl5Cv-22" edge="1">
          <mxGeometry width="50" height="50" relative="1" as="geometry">
            <mxPoint x="392.5" y="530" as="sourcePoint" />
            <mxPoint x="442.5" y="480" as="targetPoint" />
          </mxGeometry>
        </mxCell>
        <mxCell id="vIsbcEsRfZGvR6spl5Cv-40" value="" style="endArrow=classic;html=1;rounded=0;exitX=1;exitY=0.5;exitDx=0;exitDy=0;entryX=0;entryY=0.5;entryDx=0;entryDy=0;strokeColor=light-dark(#000000,#171717);fontColor=light-dark(#000000,#7A7A7A);" parent="1" source="vIsbcEsRfZGvR6spl5Cv-17" target="vIsbcEsRfZGvR6spl5Cv-19" edge="1">
          <mxGeometry width="50" height="50" relative="1" as="geometry">
            <mxPoint x="392.5" y="530" as="sourcePoint" />
            <mxPoint x="442.5" y="480" as="targetPoint" />
          </mxGeometry>
        </mxCell>
        <mxCell id="vIsbcEsRfZGvR6spl5Cv-41" value="" style="endArrow=classic;html=1;rounded=0;entryX=0;entryY=0.5;entryDx=0;entryDy=0;exitX=1;exitY=0.5;exitDx=0;exitDy=0;strokeColor=light-dark(#000000,#171717);fontColor=light-dark(#000000,#E9E9E9);" parent="1" source="vIsbcEsRfZGvR6spl5Cv-14" target="vIsbcEsRfZGvR6spl5Cv-16" edge="1">
          <mxGeometry width="50" height="50" relative="1" as="geometry">
            <mxPoint x="392.5" y="530" as="sourcePoint" />
            <mxPoint x="442.5" y="480" as="targetPoint" />
          </mxGeometry>
        </mxCell>
        <mxCell id="vIsbcEsRfZGvR6spl5Cv-42" value="" style="endArrow=classic;html=1;rounded=0;entryX=0;entryY=0.5;entryDx=0;entryDy=0;exitX=1;exitY=0.5;exitDx=0;exitDy=0;strokeColor=light-dark(#000000,#171717);fontColor=light-dark(#000000,#E9E9E9);" parent="1" source="vIsbcEsRfZGvR6spl5Cv-5" target="vIsbcEsRfZGvR6spl5Cv-13" edge="1">
          <mxGeometry width="50" height="50" relative="1" as="geometry">
            <mxPoint x="392.5" y="530" as="sourcePoint" />
            <mxPoint x="442.5" y="480" as="targetPoint" />
          </mxGeometry>
        </mxCell>
        <mxCell id="vIsbcEsRfZGvR6spl5Cv-43" value="" style="endArrow=classic;html=1;rounded=0;entryX=0;entryY=0.5;entryDx=0;entryDy=0;exitX=1;exitY=0.5;exitDx=0;exitDy=0;strokeColor=light-dark(#000000,#141414);fontColor=light-dark(#000000,#E9E9E9);" parent="1" source="vIsbcEsRfZGvR6spl5Cv-2" target="vIsbcEsRfZGvR6spl5Cv-12" edge="1">
          <mxGeometry width="50" height="50" relative="1" as="geometry">
            <mxPoint x="392.5" y="530" as="sourcePoint" />
            <mxPoint x="442.5" y="480" as="targetPoint" />
          </mxGeometry>
        </mxCell>
        <mxCell id="vIsbcEsRfZGvR6spl5Cv-49" value="" style="endArrow=classic;html=1;rounded=0;entryX=0;entryY=0.5;entryDx=0;entryDy=0;exitX=1;exitY=0.5;exitDx=0;exitDy=0;strokeColor=light-dark(#000000,#171717);fontColor=light-dark(#000000,#E9E9E9);" parent="1" source="vIsbcEsRfZGvR6spl5Cv-23" target="vIsbcEsRfZGvR6spl5Cv-25" edge="1">
          <mxGeometry width="50" height="50" relative="1" as="geometry">
            <mxPoint x="422.5" y="610" as="sourcePoint" />
            <mxPoint x="472.5" y="560" as="targetPoint" />
          </mxGeometry>
        </mxCell>
        <mxCell id="vIsbcEsRfZGvR6spl5Cv-50" value="" style="endArrow=classic;html=1;rounded=0;entryX=0;entryY=0.5;entryDx=0;entryDy=0;exitX=1;exitY=0.5;exitDx=0;exitDy=0;strokeColor=light-dark(#000000,#171717);fontColor=light-dark(#000000,#E9E9E9);" parent="1" source="vIsbcEsRfZGvR6spl5Cv-29" target="vIsbcEsRfZGvR6spl5Cv-31" edge="1">
          <mxGeometry width="50" height="50" relative="1" as="geometry">
            <mxPoint x="422.5" y="610" as="sourcePoint" />
            <mxPoint x="472.5" y="560" as="targetPoint" />
          </mxGeometry>
        </mxCell>
        <mxCell id="vIsbcEsRfZGvR6spl5Cv-51" value="" style="endArrow=classic;html=1;rounded=0;entryX=1;entryY=0.5;entryDx=0;entryDy=0;exitX=0;exitY=0.5;exitDx=0;exitDy=0;strokeColor=none;fontColor=light-dark(#000000,#E9E9E9);" parent="1" source="vIsbcEsRfZGvR6spl5Cv-38" target="aJoBD9lFihhosE0fkz8R-26" edge="1">
          <mxGeometry width="50" height="50" relative="1" as="geometry">
            <mxPoint x="422.5" y="730" as="sourcePoint" />
            <mxPoint x="542.5" y="779" as="targetPoint" />
          </mxGeometry>
        </mxCell>
        <mxCell id="vIsbcEsRfZGvR6spl5Cv-56" value="&lt;b&gt;DEATHS&lt;/b&gt;" style="text;html=1;align=center;verticalAlign=middle;whiteSpace=wrap;rounded=0;strokeColor=light-dark(#000000,#141414);fontColor=light-dark(#000000,#171717);" parent="1" vertex="1">
          <mxGeometry x="562.5" y="307" width="60" height="20" as="geometry" />
        </mxCell>
        <mxCell id="vIsbcEsRfZGvR6spl5Cv-48" value="" style="endArrow=classic;html=1;rounded=0;entryX=0;entryY=0.5;entryDx=0;entryDy=0;exitX=1;exitY=0.5;exitDx=0;exitDy=0;strokeColor=light-dark(#000000,#171717);fontColor=light-dark(#000000,#E9E9E9);" parent="1" source="vIsbcEsRfZGvR6spl5Cv-26" target="vIsbcEsRfZGvR6spl5Cv-28" edge="1">
          <mxGeometry width="50" height="50" relative="1" as="geometry">
            <mxPoint x="422.5" y="610" as="sourcePoint" />
            <mxPoint x="472.5" y="560" as="targetPoint" />
          </mxGeometry>
        </mxCell>
        <mxCell id="aJoBD9lFihhosE0fkz8R-1" value="Terah" style="rounded=1;whiteSpace=wrap;html=1;fillColor=#0050ef;fontColor=light-dark(#000000,#1A1A1A);strokeColor=light-dark(#000000,#141414);glass=0;shadow=0;" parent="1" vertex="1">
          <mxGeometry x="425" y="631" width="60" height="20" as="geometry" />
        </mxCell>
        <mxCell id="aJoBD9lFihhosE0fkz8R-2" value="1878" style="text;html=1;align=center;verticalAlign=middle;whiteSpace=wrap;rounded=0;strokeColor=none;fontColor=light-dark(#000000,#171717);" parent="1" vertex="1">
          <mxGeometry x="502.5" y="631" width="40" height="20" as="geometry" />
        </mxCell>
        <mxCell id="aJoBD9lFihhosE0fkz8R-4" value="" style="endArrow=classic;html=1;rounded=0;entryX=0;entryY=0.5;entryDx=0;entryDy=0;exitX=1;exitY=0.5;exitDx=0;exitDy=0;strokeColor=light-dark(#000000,#171717);fontColor=light-dark(#000000,#E9E9E9);" parent="1" source="aJoBD9lFihhosE0fkz8R-1" target="aJoBD9lFihhosE0fkz8R-2" edge="1">
          <mxGeometry width="50" height="50" relative="1" as="geometry">
            <mxPoint x="422.5" y="650" as="sourcePoint" />
            <mxPoint x="472.5" y="600" as="targetPoint" />
          </mxGeometry>
        </mxCell>
        <mxCell id="aJoBD9lFihhosE0fkz8R-9" value="Abram" style="rounded=1;whiteSpace=wrap;html=1;fillColor=#0050ef;fontColor=light-dark(#000000,#1A1A1A);strokeColor=light-dark(#000000,#141414);glass=0;shadow=0;" parent="1" vertex="1">
          <mxGeometry x="300" y="666" width="60" height="24" as="geometry" />
        </mxCell>
        <mxCell id="aJoBD9lFihhosE0fkz8R-10" value="Nahor" style="rounded=1;whiteSpace=wrap;html=1;fillColor=#0050ef;fontColor=light-dark(#000000,#1A1A1A);strokeColor=light-dark(#000000,#141414);glass=0;shadow=0;" parent="1" vertex="1">
          <mxGeometry x="362.5" y="666" width="60" height="24" as="geometry" />
        </mxCell>
        <mxCell id="aJoBD9lFihhosE0fkz8R-11" value="Haran" style="rounded=1;whiteSpace=wrap;html=1;fillColor=#0050ef;fontColor=light-dark(#000000,#1A1A1A);strokeColor=light-dark(#000000,#141414);glass=0;shadow=0;" parent="1" vertex="1">
          <mxGeometry x="425" y="666" width="60" height="24" as="geometry" />
        </mxCell>
        <mxCell id="aJoBD9lFihhosE0fkz8R-12" value="" style="endArrow=classic;html=1;rounded=0;entryX=0;entryY=0.5;entryDx=0;entryDy=0;exitX=1;exitY=0.5;exitDx=0;exitDy=0;strokeColor=light-dark(#000000,#171717);fontColor=light-dark(#000000,#E9E9E9);" parent="1" edge="1">
          <mxGeometry width="50" height="50" relative="1" as="geometry">
            <mxPoint x="485" y="681" as="sourcePoint" />
            <mxPoint x="503" y="681" as="targetPoint" />
          </mxGeometry>
        </mxCell>
        <mxCell id="aJoBD9lFihhosE0fkz8R-13" value="&lt;div&gt;1948&lt;/div&gt;" style="text;html=1;align=center;verticalAlign=middle;whiteSpace=wrap;rounded=0;strokeColor=none;fontColor=light-dark(#000000,#171717);" parent="1" vertex="1">
          <mxGeometry x="502.5" y="671" width="40" height="20" as="geometry" />
        </mxCell>
        <mxCell id="aJoBD9lFihhosE0fkz8R-17" value="" style="endArrow=none;dashed=1;html=1;rounded=0;exitX=0.5;exitY=0;exitDx=0;exitDy=0;strokeColor=light-dark(#000000,#141414);entryX=0.25;entryY=1;entryDx=0;entryDy=0;fontColor=light-dark(#000000,#1A1A1A);" parent="1" source="aJoBD9lFihhosE0fkz8R-9" target="aJoBD9lFihhosE0fkz8R-1" edge="1">
          <mxGeometry width="50" height="50" relative="1" as="geometry">
            <mxPoint x="370" y="760" as="sourcePoint" />
            <mxPoint x="440" y="740" as="targetPoint" />
          </mxGeometry>
        </mxCell>
        <mxCell id="aJoBD9lFihhosE0fkz8R-18" value="" style="endArrow=none;dashed=1;html=1;rounded=0;exitX=0.5;exitY=0;exitDx=0;exitDy=0;strokeColor=light-dark(#000000,#141414);entryX=0.5;entryY=1;entryDx=0;entryDy=0;fontColor=light-dark(#000000,#1A1A1A);" parent="1" source="aJoBD9lFihhosE0fkz8R-10" target="aJoBD9lFihhosE0fkz8R-1" edge="1">
          <mxGeometry width="50" height="50" relative="1" as="geometry">
            <mxPoint x="390" y="760" as="sourcePoint" />
            <mxPoint x="455" y="740" as="targetPoint" />
          </mxGeometry>
        </mxCell>
        <mxCell id="aJoBD9lFihhosE0fkz8R-19" value="" style="endArrow=none;dashed=1;html=1;rounded=0;exitX=0.5;exitY=0;exitDx=0;exitDy=0;strokeColor=light-dark(#000000,#141414);entryX=0.5;entryY=1;entryDx=0;entryDy=0;fontColor=light-dark(#000000,#1A1A1A);" parent="1" source="aJoBD9lFihhosE0fkz8R-11" target="aJoBD9lFihhosE0fkz8R-1" edge="1">
          <mxGeometry width="50" height="50" relative="1" as="geometry">
            <mxPoint x="450" y="790" as="sourcePoint" />
            <mxPoint x="470" y="740" as="targetPoint" />
          </mxGeometry>
        </mxCell>
        <mxCell id="aJoBD9lFihhosE0fkz8R-20" value="Shem" style="rounded=1;whiteSpace=wrap;html=1;fillColor=#e51400;fontColor=light-dark(#000000,#1A1A1A);strokeColor=light-dark(#000000,#141414);align=center;" parent="1" vertex="1">
          <mxGeometry x="562.5" y="832" width="50" height="19" as="geometry" />
        </mxCell>
        <mxCell id="aJoBD9lFihhosE0fkz8R-21" value="" style="endArrow=classic;html=1;rounded=0;entryX=1;entryY=0.5;entryDx=0;entryDy=0;exitX=0;exitY=0.5;exitDx=0;exitDy=0;strokeColor=none;fontColor=light-dark(#000000,#E9E9E9);" parent="1" source="aJoBD9lFihhosE0fkz8R-20" edge="1">
          <mxGeometry width="50" height="50" relative="1" as="geometry">
            <mxPoint x="422.5" y="793" as="sourcePoint" />
            <mxPoint x="542.5" y="842" as="targetPoint" />
          </mxGeometry>
        </mxCell>
        <mxCell id="aJoBD9lFihhosE0fkz8R-25" value="&lt;div&gt;2158&lt;/div&gt;" style="text;html=1;align=center;verticalAlign=middle;whiteSpace=wrap;rounded=0;strokeColor=none;fontColor=light-dark(#000000,#171717);" parent="1" vertex="1">
          <mxGeometry x="502.5" y="833" width="40" height="20" as="geometry" />
        </mxCell>
        <mxCell id="aJoBD9lFihhosE0fkz8R-26" value="2096" style="text;html=1;align=center;verticalAlign=middle;whiteSpace=wrap;rounded=0;strokeColor=none;fontColor=light-dark(#000000,#171717);" parent="1" vertex="1">
          <mxGeometry x="502.5" y="770" width="40" height="20" as="geometry" />
        </mxCell>
        <mxCell id="aJoBD9lFihhosE0fkz8R-27" value="2126" style="text;html=1;align=center;verticalAlign=middle;whiteSpace=wrap;rounded=0;strokeColor=none;fontColor=light-dark(#000000,#171717);" parent="1" vertex="1">
          <mxGeometry x="502.5" y="790.5" width="40" height="20" as="geometry" />
        </mxCell>
        <mxCell id="aJoBD9lFihhosE0fkz8R-29" value="1996" style="text;html=1;align=center;verticalAlign=middle;whiteSpace=wrap;rounded=0;strokeColor=none;fontColor=light-dark(#000000,#171717);" parent="1" vertex="1">
          <mxGeometry x="502.5" y="687" width="40" height="20" as="geometry" />
        </mxCell>
        <mxCell id="aJoBD9lFihhosE0fkz8R-30" value="2026" style="text;html=1;align=center;verticalAlign=middle;whiteSpace=wrap;rounded=0;strokeColor=none;fontColor=light-dark(#000000,#171717);" parent="1" vertex="1">
          <mxGeometry x="502.5" y="728" width="40" height="20" as="geometry" />
        </mxCell>
        <mxCell id="aJoBD9lFihhosE0fkz8R-31" value="2149" style="text;html=1;align=center;verticalAlign=middle;whiteSpace=wrap;rounded=0;strokeColor=none;fontColor=light-dark(#000000,#171717);" parent="1" vertex="1">
          <mxGeometry x="502.5" y="811.5" width="40" height="20" as="geometry" />
        </mxCell>
        <mxCell id="aJoBD9lFihhosE0fkz8R-32" value="1997" style="text;html=1;align=center;verticalAlign=middle;whiteSpace=wrap;rounded=0;strokeColor=none;fontColor=light-dark(#000000,#171717);" parent="1" vertex="1">
          <mxGeometry x="502.5" y="707" width="40" height="20" as="geometry" />
        </mxCell>
        <mxCell id="aJoBD9lFihhosE0fkz8R-39" value="&lt;div&gt;Salah&lt;/div&gt;" style="rounded=1;whiteSpace=wrap;html=1;fillColor=#e51400;fontColor=light-dark(#000000,#1A1A1A);strokeColor=light-dark(#000000,#141414);align=center;" parent="1" vertex="1">
          <mxGeometry x="562.5" y="791" width="50" height="19" as="geometry" />
        </mxCell>
        <mxCell id="aJoBD9lFihhosE0fkz8R-40" value="" style="endArrow=classic;html=1;rounded=0;exitX=0;exitY=0.5;exitDx=0;exitDy=0;strokeColor=none;fontColor=light-dark(#000000,#E9E9E9);entryX=1;entryY=0.5;entryDx=0;entryDy=0;" parent="1" source="aJoBD9lFihhosE0fkz8R-39" target="aJoBD9lFihhosE0fkz8R-27" edge="1">
          <mxGeometry width="50" height="50" relative="1" as="geometry">
            <mxPoint x="422.5" y="752" as="sourcePoint" />
            <mxPoint x="440" y="867" as="targetPoint" />
          </mxGeometry>
        </mxCell>
        <mxCell id="aJoBD9lFihhosE0fkz8R-41" value="Eber" style="rounded=1;whiteSpace=wrap;html=1;fillColor=#e51400;fontColor=light-dark(#000000,#1A1A1A);strokeColor=light-dark(#000000,#141414);align=center;" parent="1" vertex="1">
          <mxGeometry x="562.5" y="853" width="50" height="19" as="geometry" />
        </mxCell>
        <mxCell id="aJoBD9lFihhosE0fkz8R-42" value="" style="endArrow=classic;html=1;rounded=0;entryX=1;entryY=0.5;entryDx=0;entryDy=0;exitX=0;exitY=0.5;exitDx=0;exitDy=0;strokeColor=none;fontColor=light-dark(#000000,#E9E9E9);" parent="1" source="aJoBD9lFihhosE0fkz8R-41" target="aJoBD9lFihhosE0fkz8R-43" edge="1">
          <mxGeometry width="50" height="50" relative="1" as="geometry">
            <mxPoint x="422.5" y="814" as="sourcePoint" />
            <mxPoint x="542.5" y="863" as="targetPoint" />
          </mxGeometry>
        </mxCell>
        <mxCell id="aJoBD9lFihhosE0fkz8R-43" value="&lt;div&gt;2187&lt;/div&gt;" style="text;html=1;align=center;verticalAlign=middle;whiteSpace=wrap;rounded=0;strokeColor=none;fontColor=light-dark(#000000,#171717);" parent="1" vertex="1">
          <mxGeometry x="502.5" y="852" width="40" height="20" as="geometry" />
        </mxCell>
        <mxCell id="aJoBD9lFihhosE0fkz8R-44" value="Peleg" style="rounded=1;whiteSpace=wrap;html=1;fillColor=#e51400;fontColor=light-dark(#000000,#1A1A1A);strokeColor=light-dark(#000000,#141414);align=center;" parent="1" vertex="1">
          <mxGeometry x="562.5" y="686" width="50" height="19" as="geometry" />
        </mxCell>
        <mxCell id="aJoBD9lFihhosE0fkz8R-45" value="" style="endArrow=classic;html=1;rounded=0;entryX=1;entryY=0.5;entryDx=0;entryDy=0;exitX=0;exitY=0.5;exitDx=0;exitDy=0;strokeColor=none;fontColor=light-dark(#000000,#E9E9E9);" parent="1" source="aJoBD9lFihhosE0fkz8R-44" edge="1">
          <mxGeometry width="50" height="50" relative="1" as="geometry">
            <mxPoint x="422.5" y="647" as="sourcePoint" />
            <mxPoint x="542.5" y="696" as="targetPoint" />
          </mxGeometry>
        </mxCell>
        <mxCell id="aJoBD9lFihhosE0fkz8R-46" value="Reu" style="rounded=1;whiteSpace=wrap;html=1;fillColor=#e51400;fontColor=light-dark(#000000,#1A1A1A);strokeColor=light-dark(#000000,#141414);align=center;" parent="1" vertex="1">
          <mxGeometry x="562.5" y="728" width="50" height="19" as="geometry" />
        </mxCell>
        <mxCell id="aJoBD9lFihhosE0fkz8R-47" value="" style="endArrow=classic;html=1;rounded=0;entryX=1;entryY=0.5;entryDx=0;entryDy=0;exitX=0;exitY=0.5;exitDx=0;exitDy=0;strokeColor=none;fontColor=light-dark(#000000,#E9E9E9);" parent="1" source="aJoBD9lFihhosE0fkz8R-46" target="aJoBD9lFihhosE0fkz8R-30" edge="1">
          <mxGeometry width="50" height="50" relative="1" as="geometry">
            <mxPoint x="422.5" y="688" as="sourcePoint" />
            <mxPoint x="542.5" y="737" as="targetPoint" />
          </mxGeometry>
        </mxCell>
        <mxCell id="aJoBD9lFihhosE0fkz8R-48" value="Serug" style="rounded=1;whiteSpace=wrap;html=1;fillColor=#e51400;fontColor=light-dark(#000000,#1A1A1A);strokeColor=light-dark(#000000,#141414);align=center;" parent="1" vertex="1">
          <mxGeometry x="562.5" y="811.5" width="50" height="19" as="geometry" />
        </mxCell>
        <mxCell id="aJoBD9lFihhosE0fkz8R-49" value="" style="endArrow=classic;html=1;rounded=0;entryX=1;entryY=0.5;entryDx=0;entryDy=0;exitX=0;exitY=0.5;exitDx=0;exitDy=0;strokeColor=none;fontColor=light-dark(#000000,#E9E9E9);" parent="1" source="aJoBD9lFihhosE0fkz8R-48" target="aJoBD9lFihhosE0fkz8R-31" edge="1">
          <mxGeometry width="50" height="50" relative="1" as="geometry">
            <mxPoint x="422.5" y="772.5" as="sourcePoint" />
            <mxPoint x="542.5" y="821.5" as="targetPoint" />
          </mxGeometry>
        </mxCell>
        <mxCell id="AH2ZuKhd8LshwsJs8EDg-1" value="&lt;div&gt;Nahor&lt;/div&gt;" style="rounded=1;whiteSpace=wrap;html=1;fillColor=#e51400;fontColor=light-dark(#000000,#1A1A1A);strokeColor=light-dark(#000000,#141414);align=center;" parent="1" vertex="1">
          <mxGeometry x="562.5" y="707" width="50" height="19" as="geometry" />
        </mxCell>
        <mxCell id="AH2ZuKhd8LshwsJs8EDg-2" value="" style="endArrow=classic;html=1;rounded=0;exitX=0;exitY=0.5;exitDx=0;exitDy=0;strokeColor=none;fontColor=light-dark(#000000,#E9E9E9);entryX=1;entryY=0.5;entryDx=0;entryDy=0;" parent="1" source="AH2ZuKhd8LshwsJs8EDg-1" target="aJoBD9lFihhosE0fkz8R-32" edge="1">
          <mxGeometry width="50" height="50" relative="1" as="geometry">
            <mxPoint x="422.5" y="668" as="sourcePoint" />
            <mxPoint x="700" y="676" as="targetPoint" />
          </mxGeometry>
        </mxCell>
        <mxCell id="AH2ZuKhd8LshwsJs8EDg-3" value="Terah" style="rounded=1;whiteSpace=wrap;html=1;fillColor=#e51400;fontColor=light-dark(#000000,#1A1A1A);strokeColor=light-dark(#000000,#141414);align=center;" parent="1" vertex="1">
          <mxGeometry x="562.5" y="749" width="50" height="19" as="geometry" />
        </mxCell>
        <mxCell id="AH2ZuKhd8LshwsJs8EDg-4" value="" style="endArrow=classic;html=1;rounded=0;entryX=1;entryY=0.5;entryDx=0;entryDy=0;exitX=0;exitY=0.5;exitDx=0;exitDy=0;strokeColor=none;fontColor=light-dark(#000000,#E9E9E9);" parent="1" source="AH2ZuKhd8LshwsJs8EDg-3" edge="1">
          <mxGeometry width="50" height="50" relative="1" as="geometry">
            <mxPoint x="422.5" y="710" as="sourcePoint" />
            <mxPoint x="542.5" y="759" as="targetPoint" />
          </mxGeometry>
        </mxCell>
        <mxCell id="AH2ZuKhd8LshwsJs8EDg-5" value="&lt;div&gt;2083&lt;/div&gt;" style="text;html=1;align=center;verticalAlign=middle;whiteSpace=wrap;rounded=0;strokeColor=none;fontColor=light-dark(#000000,#171717);" parent="1" vertex="1">
          <mxGeometry x="502.5" y="750" width="40" height="20" as="geometry" />
        </mxCell>
        <mxCell id="AH2ZuKhd8LshwsJs8EDg-112" value="Noah" style="rounded=1;whiteSpace=wrap;html=1;fillColor=#0050ef;fontColor=light-dark(#000000,#1A1A1A);strokeColor=light-dark(#000000,#141414);glass=0;shadow=0;" parent="1" vertex="1">
          <mxGeometry x="317.5" y="307" width="60" height="20" as="geometry" />
        </mxCell>
        <mxCell id="AH2ZuKhd8LshwsJs8EDg-113" value="Japheth" style="rounded=1;whiteSpace=wrap;html=1;fillColor=#0050ef;fontColor=light-dark(#000000,#1A1A1A);strokeColor=light-dark(#000000,#141414);glass=0;shadow=0;" parent="1" vertex="1">
          <mxGeometry x="317.5" y="340" width="60" height="20" as="geometry" />
        </mxCell>
        <mxCell id="AH2ZuKhd8LshwsJs8EDg-114" value="Ham" style="rounded=1;whiteSpace=wrap;html=1;fillColor=#0050ef;fontColor=light-dark(#000000,#1A1A1A);strokeColor=light-dark(#000000,#141414);glass=0;shadow=0;" parent="1" vertex="1">
          <mxGeometry x="250" y="340" width="60" height="20" as="geometry" />
        </mxCell>
        <mxCell id="AH2ZuKhd8LshwsJs8EDg-115" value="" style="endArrow=none;dashed=1;html=1;rounded=0;entryX=0.25;entryY=1;entryDx=0;entryDy=0;exitX=0.5;exitY=0;exitDx=0;exitDy=0;strokeColor=light-dark(#000000,#141414);fontColor=light-dark(#000000,#1A1A1A);" parent="1" source="AH2ZuKhd8LshwsJs8EDg-114" target="AH2ZuKhd8LshwsJs8EDg-112" edge="1">
          <mxGeometry width="50" height="50" relative="1" as="geometry">
            <mxPoint x="320" y="395" as="sourcePoint" />
            <mxPoint x="320" y="380" as="targetPoint" />
          </mxGeometry>
        </mxCell>
        <mxCell id="AH2ZuKhd8LshwsJs8EDg-116" value="" style="endArrow=none;dashed=1;html=1;rounded=0;entryX=0.5;entryY=1;entryDx=0;entryDy=0;exitX=0.5;exitY=0;exitDx=0;exitDy=0;strokeColor=light-dark(#000000,#141414);fontColor=light-dark(#000000,#1A1A1A);" parent="1" source="AH2ZuKhd8LshwsJs8EDg-113" target="AH2ZuKhd8LshwsJs8EDg-112" edge="1">
          <mxGeometry width="50" height="50" relative="1" as="geometry">
            <mxPoint x="330" y="415" as="sourcePoint" />
            <mxPoint x="330" y="400" as="targetPoint" />
          </mxGeometry>
        </mxCell>
        <mxCell id="AH2ZuKhd8LshwsJs8EDg-117" value="" style="endArrow=none;dashed=1;html=1;rounded=0;entryX=0.75;entryY=1;entryDx=0;entryDy=0;exitX=0.5;exitY=0;exitDx=0;exitDy=0;strokeColor=light-dark(#000000,#141414);fontColor=light-dark(#000000,#1A1A1A);" parent="1" source="vIsbcEsRfZGvR6spl5Cv-2" target="AH2ZuKhd8LshwsJs8EDg-112" edge="1">
          <mxGeometry width="50" height="50" relative="1" as="geometry">
            <mxPoint x="350" y="405" as="sourcePoint" />
            <mxPoint x="350" y="390" as="targetPoint" />
          </mxGeometry>
        </mxCell>
        <mxCell id="AH2ZuKhd8LshwsJs8EDg-118" value="1056" style="text;html=1;align=center;verticalAlign=middle;whiteSpace=wrap;rounded=0;strokeColor=none;fontColor=light-dark(#000000,#171717);" parent="1" vertex="1">
          <mxGeometry x="502.5" y="329" width="40" height="20" as="geometry" />
        </mxCell>
        <mxCell id="AH2ZuKhd8LshwsJs8EDg-119" value="" style="endArrow=classic;html=1;rounded=0;entryX=0;entryY=0.5;entryDx=0;entryDy=0;exitX=1;exitY=0.5;exitDx=0;exitDy=0;strokeColor=light-dark(#000000,#141414);fontColor=light-dark(#000000,#E9E9E9);" parent="1" source="AH2ZuKhd8LshwsJs8EDg-112" target="AH2ZuKhd8LshwsJs8EDg-118" edge="1">
          <mxGeometry width="50" height="50" relative="1" as="geometry">
            <mxPoint x="480" y="330" as="sourcePoint" />
            <mxPoint x="437.5" y="450" as="targetPoint" />
          </mxGeometry>
        </mxCell>
        <mxCell id="2Ir9cTfWj3Ynbl9pCm2M-1" value="Elam" style="rounded=1;whiteSpace=wrap;html=1;fillColor=#0050ef;fontColor=light-dark(#000000,#1A1A1A);strokeColor=light-dark(#000000,#141414);glass=0;shadow=0;" vertex="1" parent="1">
          <mxGeometry x="226.5" y="401" width="37" height="20" as="geometry" />
        </mxCell>
        <mxCell id="2Ir9cTfWj3Ynbl9pCm2M-2" value="" style="endArrow=none;dashed=1;html=1;rounded=0;entryX=0.5;entryY=1;entryDx=0;entryDy=0;exitX=0.5;exitY=0;exitDx=0;exitDy=0;strokeColor=light-dark(#000000,#141414);fontColor=light-dark(#000000,#1A1A1A);" edge="1" parent="1" source="2Ir9cTfWj3Ynbl9pCm2M-1" target="vIsbcEsRfZGvR6spl5Cv-2">
          <mxGeometry width="50" height="50" relative="1" as="geometry">
            <mxPoint x="247.5" y="420" as="sourcePoint" />
            <mxPoint x="370" y="390" as="targetPoint" />
          </mxGeometry>
        </mxCell>
        <mxCell id="2Ir9cTfWj3Ynbl9pCm2M-3" value="Asshur" style="rounded=1;whiteSpace=wrap;html=1;fillColor=#0050ef;fontColor=light-dark(#000000,#1A1A1A);strokeColor=light-dark(#000000,#141414);glass=0;shadow=0;" vertex="1" parent="1">
          <mxGeometry x="265" y="401" width="51.5" height="20" as="geometry" />
        </mxCell>
        <mxCell id="2Ir9cTfWj3Ynbl9pCm2M-4" value="Lud" style="rounded=1;whiteSpace=wrap;html=1;fillColor=#0050ef;fontColor=light-dark(#000000,#1A1A1A);strokeColor=light-dark(#000000,#141414);glass=0;shadow=0;" vertex="1" parent="1">
          <mxGeometry x="317.5" y="401" width="41.5" height="20" as="geometry" />
        </mxCell>
        <mxCell id="2Ir9cTfWj3Ynbl9pCm2M-5" value="Aram" style="rounded=1;whiteSpace=wrap;html=1;fillColor=#0050ef;fontColor=light-dark(#000000,#1A1A1A);strokeColor=light-dark(#000000,#141414);glass=0;shadow=0;" vertex="1" parent="1">
          <mxGeometry x="360" y="401" width="48.5" height="20" as="geometry" />
        </mxCell>
        <mxCell id="2Ir9cTfWj3Ynbl9pCm2M-6" value="" style="endArrow=none;dashed=1;html=1;rounded=0;entryX=0.5;entryY=1;entryDx=0;entryDy=0;exitX=0.5;exitY=0;exitDx=0;exitDy=0;strokeColor=light-dark(#000000,#141414);fontColor=light-dark(#000000,#1A1A1A);" edge="1" parent="1" source="2Ir9cTfWj3Ynbl9pCm2M-3" target="vIsbcEsRfZGvR6spl5Cv-2">
          <mxGeometry width="50" height="50" relative="1" as="geometry">
            <mxPoint x="280" y="475" as="sourcePoint" />
            <mxPoint x="484" y="450" as="targetPoint" />
          </mxGeometry>
        </mxCell>
        <mxCell id="2Ir9cTfWj3Ynbl9pCm2M-7" value="" style="endArrow=none;dashed=1;html=1;rounded=0;entryX=0.5;entryY=0;entryDx=0;entryDy=0;strokeColor=light-dark(#000000,#141414);fontColor=light-dark(#000000,#1A1A1A);exitX=0.5;exitY=1;exitDx=0;exitDy=0;" edge="1" parent="1" source="vIsbcEsRfZGvR6spl5Cv-2" target="2Ir9cTfWj3Ynbl9pCm2M-4">
          <mxGeometry width="50" height="50" relative="1" as="geometry">
            <mxPoint x="400" y="360" as="sourcePoint" />
            <mxPoint x="428" y="460" as="targetPoint" />
          </mxGeometry>
        </mxCell>
        <mxCell id="2Ir9cTfWj3Ynbl9pCm2M-8" value="" style="endArrow=none;dashed=1;html=1;rounded=0;entryX=0.5;entryY=1;entryDx=0;entryDy=0;exitX=0.5;exitY=0;exitDx=0;exitDy=0;strokeColor=light-dark(#000000,#141414);fontColor=light-dark(#000000,#1A1A1A);" edge="1" parent="1" source="2Ir9cTfWj3Ynbl9pCm2M-5" target="vIsbcEsRfZGvR6spl5Cv-2">
          <mxGeometry width="50" height="50" relative="1" as="geometry">
            <mxPoint x="330" y="475" as="sourcePoint" />
            <mxPoint x="468" y="450" as="targetPoint" />
          </mxGeometry>
        </mxCell>
        <mxCell id="2Ir9cTfWj3Ynbl9pCm2M-9" value="Uz" style="rounded=1;whiteSpace=wrap;html=1;fillColor=#0050ef;fontColor=light-dark(#000000,#1A1A1A);strokeColor=light-dark(#000000,#141414);glass=0;shadow=0;" vertex="1" parent="1">
          <mxGeometry x="246.5" y="441" width="31.5" height="20" as="geometry" />
        </mxCell>
        <mxCell id="2Ir9cTfWj3Ynbl9pCm2M-10" value="Hul" style="rounded=1;whiteSpace=wrap;html=1;fillColor=#0050ef;fontColor=light-dark(#000000,#1A1A1A);strokeColor=light-dark(#000000,#141414);glass=0;shadow=0;" vertex="1" parent="1">
          <mxGeometry x="279" y="441" width="31.5" height="20" as="geometry" />
        </mxCell>
        <mxCell id="2Ir9cTfWj3Ynbl9pCm2M-11" value="Gether" style="rounded=1;whiteSpace=wrap;html=1;fillColor=#0050ef;fontColor=light-dark(#000000,#1A1A1A);strokeColor=light-dark(#000000,#141414);glass=0;shadow=0;" vertex="1" parent="1">
          <mxGeometry x="311.5" y="441" width="48.5" height="20" as="geometry" />
        </mxCell>
        <mxCell id="2Ir9cTfWj3Ynbl9pCm2M-12" value="Mash" style="rounded=1;whiteSpace=wrap;html=1;fillColor=#0050ef;fontColor=light-dark(#000000,#1A1A1A);strokeColor=light-dark(#000000,#141414);glass=0;shadow=0;" vertex="1" parent="1">
          <mxGeometry x="361" y="441" width="48.5" height="20" as="geometry" />
        </mxCell>
        <mxCell id="2Ir9cTfWj3Ynbl9pCm2M-13" value="" style="endArrow=none;dashed=1;html=1;rounded=0;entryX=0.5;entryY=1;entryDx=0;entryDy=0;exitX=0.5;exitY=0;exitDx=0;exitDy=0;strokeColor=light-dark(#000000,#141414);fontColor=light-dark(#000000,#1A1A1A);" edge="1" parent="1" source="2Ir9cTfWj3Ynbl9pCm2M-9" target="2Ir9cTfWj3Ynbl9pCm2M-5">
          <mxGeometry width="50" height="50" relative="1" as="geometry">
            <mxPoint x="260" y="501" as="sourcePoint" />
            <mxPoint x="347" y="460" as="targetPoint" />
          </mxGeometry>
        </mxCell>
        <mxCell id="2Ir9cTfWj3Ynbl9pCm2M-14" value="Joktan" style="rounded=1;whiteSpace=wrap;html=1;fillColor=#0050ef;fontColor=light-dark(#000000,#1A1A1A);strokeColor=light-dark(#000000,#141414);glass=0;shadow=0;" vertex="1" parent="1">
          <mxGeometry x="337" y="500" width="65" height="20" as="geometry" />
        </mxCell>
        <mxCell id="2Ir9cTfWj3Ynbl9pCm2M-15" value="" style="endArrow=none;dashed=1;html=1;rounded=0;exitX=0.5;exitY=0;exitDx=0;exitDy=0;strokeColor=light-dark(#000000,#141414);entryX=0.25;entryY=1;entryDx=0;entryDy=0;fontColor=light-dark(#000000,#1A1A1A);" edge="1" parent="1" source="2Ir9cTfWj3Ynbl9pCm2M-14" target="vIsbcEsRfZGvR6spl5Cv-17">
          <mxGeometry width="50" height="50" relative="1" as="geometry">
            <mxPoint x="370" y="545" as="sourcePoint" />
            <mxPoint x="370" y="530" as="targetPoint" />
          </mxGeometry>
        </mxCell>
        <mxCell id="2Ir9cTfWj3Ynbl9pCm2M-16" value="" style="endArrow=none;dashed=1;html=1;rounded=0;entryX=0.425;entryY=1.017;entryDx=0;entryDy=0;exitX=0.5;exitY=0;exitDx=0;exitDy=0;strokeColor=light-dark(#000000,#141414);fontColor=light-dark(#000000,#1A1A1A);entryPerimeter=0;" edge="1" parent="1" source="2Ir9cTfWj3Ynbl9pCm2M-10" target="2Ir9cTfWj3Ynbl9pCm2M-5">
          <mxGeometry width="50" height="50" relative="1" as="geometry">
            <mxPoint x="180" y="560" as="sourcePoint" />
            <mxPoint x="415" y="510" as="targetPoint" />
          </mxGeometry>
        </mxCell>
        <mxCell id="2Ir9cTfWj3Ynbl9pCm2M-17" value="" style="endArrow=none;dashed=1;html=1;rounded=0;exitX=0.5;exitY=0;exitDx=0;exitDy=0;strokeColor=light-dark(#000000,#141414);fontColor=light-dark(#000000,#1A1A1A);entryX=0.5;entryY=1;entryDx=0;entryDy=0;" edge="1" parent="1" source="2Ir9cTfWj3Ynbl9pCm2M-11" target="2Ir9cTfWj3Ynbl9pCm2M-5">
          <mxGeometry width="50" height="50" relative="1" as="geometry">
            <mxPoint x="210" y="580" as="sourcePoint" />
            <mxPoint x="330" y="430" as="targetPoint" />
          </mxGeometry>
        </mxCell>
        <mxCell id="2Ir9cTfWj3Ynbl9pCm2M-18" value="" style="endArrow=none;dashed=1;html=1;rounded=0;entryX=0.5;entryY=1;entryDx=0;entryDy=0;exitX=0.5;exitY=0;exitDx=0;exitDy=0;strokeColor=light-dark(#000000,#141414);fontColor=light-dark(#000000,#1A1A1A);" edge="1" parent="1" source="2Ir9cTfWj3Ynbl9pCm2M-12" target="2Ir9cTfWj3Ynbl9pCm2M-5">
          <mxGeometry width="50" height="50" relative="1" as="geometry">
            <mxPoint x="250" y="580" as="sourcePoint" />
            <mxPoint x="414" y="530" as="targetPoint" />
          </mxGeometry>
        </mxCell>
        <mxCell id="2Ir9cTfWj3Ynbl9pCm2M-19" value="Almodad" style="rounded=1;whiteSpace=wrap;html=1;fillColor=#0050ef;fontColor=light-dark(#000000,#1A1A1A);strokeColor=light-dark(#000000,#141414);glass=0;shadow=0;" vertex="1" parent="1">
          <mxGeometry x="158.5" y="546" width="65" height="20" as="geometry" />
        </mxCell>
        <mxCell id="2Ir9cTfWj3Ynbl9pCm2M-20" value="Sheleph" style="rounded=1;whiteSpace=wrap;html=1;fillColor=#0050ef;fontColor=light-dark(#000000,#1A1A1A);strokeColor=light-dark(#000000,#141414);glass=0;shadow=0;" vertex="1" parent="1">
          <mxGeometry x="224.5" y="546" width="65" height="20" as="geometry" />
        </mxCell>
        <mxCell id="2Ir9cTfWj3Ynbl9pCm2M-21" value="Hazarmaveth" style="rounded=1;whiteSpace=wrap;html=1;fillColor=#0050ef;fontColor=light-dark(#000000,#1A1A1A);strokeColor=light-dark(#000000,#141414);glass=0;shadow=0;" vertex="1" parent="1">
          <mxGeometry x="290.5" y="546" width="75" height="20" as="geometry" />
        </mxCell>
        <mxCell id="2Ir9cTfWj3Ynbl9pCm2M-22" value="Jerah" style="rounded=1;whiteSpace=wrap;html=1;fillColor=#0050ef;fontColor=light-dark(#000000,#1A1A1A);strokeColor=light-dark(#000000,#141414);glass=0;shadow=0;" vertex="1" parent="1">
          <mxGeometry x="366.5" y="546" width="40" height="20" as="geometry" />
        </mxCell>
        <mxCell id="2Ir9cTfWj3Ynbl9pCm2M-23" value="Uzal" style="rounded=1;whiteSpace=wrap;html=1;fillColor=#0050ef;fontColor=light-dark(#000000,#1A1A1A);strokeColor=light-dark(#000000,#141414);glass=0;shadow=0;" vertex="1" parent="1">
          <mxGeometry x="224.5" y="567" width="40" height="20" as="geometry" />
        </mxCell>
        <mxCell id="2Ir9cTfWj3Ynbl9pCm2M-24" value="Sheba" style="rounded=1;whiteSpace=wrap;html=1;fillColor=#0050ef;fontColor=light-dark(#000000,#1A1A1A);strokeColor=light-dark(#000000,#141414);glass=0;shadow=0;" vertex="1" parent="1">
          <mxGeometry x="159.5" y="587.75" width="50" height="20" as="geometry" />
        </mxCell>
        <mxCell id="2Ir9cTfWj3Ynbl9pCm2M-25" value="Obal" style="rounded=1;whiteSpace=wrap;html=1;fillColor=#0050ef;fontColor=light-dark(#000000,#1A1A1A);strokeColor=light-dark(#000000,#141414);glass=0;shadow=0;" vertex="1" parent="1">
          <mxGeometry x="311.5" y="567" width="37.5" height="20" as="geometry" />
        </mxCell>
        <mxCell id="2Ir9cTfWj3Ynbl9pCm2M-26" value="Diklah" style="rounded=1;whiteSpace=wrap;html=1;fillColor=#0050ef;fontColor=light-dark(#000000,#1A1A1A);strokeColor=light-dark(#000000,#141414);glass=0;shadow=0;" vertex="1" parent="1">
          <mxGeometry x="265.5" y="567" width="45" height="20" as="geometry" />
        </mxCell>
        <mxCell id="2Ir9cTfWj3Ynbl9pCm2M-27" value="Hadoram" style="rounded=1;whiteSpace=wrap;html=1;fillColor=#0050ef;fontColor=light-dark(#000000,#1A1A1A);strokeColor=light-dark(#000000,#141414);glass=0;shadow=0;" vertex="1" parent="1">
          <mxGeometry x="158.5" y="567" width="65" height="20" as="geometry" />
        </mxCell>
        <mxCell id="2Ir9cTfWj3Ynbl9pCm2M-28" value="Abimael" style="rounded=1;whiteSpace=wrap;html=1;fillColor=#0050ef;fontColor=light-dark(#000000,#1A1A1A);strokeColor=light-dark(#000000,#141414);glass=0;shadow=0;" vertex="1" parent="1">
          <mxGeometry x="350" y="566.75" width="55" height="20" as="geometry" />
        </mxCell>
        <mxCell id="2Ir9cTfWj3Ynbl9pCm2M-29" value="Ophir" style="rounded=1;whiteSpace=wrap;html=1;fillColor=#0050ef;fontColor=light-dark(#000000,#1A1A1A);strokeColor=light-dark(#000000,#141414);glass=0;shadow=0;" vertex="1" parent="1">
          <mxGeometry x="210.5" y="588" width="40" height="20" as="geometry" />
        </mxCell>
        <mxCell id="2Ir9cTfWj3Ynbl9pCm2M-30" value="Havilah" style="rounded=1;whiteSpace=wrap;html=1;fillColor=#0050ef;fontColor=light-dark(#000000,#1A1A1A);strokeColor=light-dark(#000000,#141414);glass=0;shadow=0;" vertex="1" parent="1">
          <mxGeometry x="251.5" y="588" width="50" height="20" as="geometry" />
        </mxCell>
        <mxCell id="2Ir9cTfWj3Ynbl9pCm2M-31" value="Jobab" style="rounded=1;whiteSpace=wrap;html=1;fillColor=#0050ef;fontColor=light-dark(#000000,#1A1A1A);strokeColor=light-dark(#000000,#141414);glass=0;shadow=0;" vertex="1" parent="1">
          <mxGeometry x="302.5" y="588" width="45" height="20" as="geometry" />
        </mxCell>
        <mxCell id="2Ir9cTfWj3Ynbl9pCm2M-32" value="" style="endArrow=none;dashed=1;html=1;rounded=0;exitX=0.25;exitY=0;exitDx=0;exitDy=0;strokeColor=light-dark(#000000,#141414);entryX=0.5;entryY=1;entryDx=0;entryDy=0;fontColor=light-dark(#000000,#1A1A1A);" edge="1" parent="1" source="2Ir9cTfWj3Ynbl9pCm2M-37" target="2Ir9cTfWj3Ynbl9pCm2M-14">
          <mxGeometry width="50" height="50" relative="1" as="geometry">
            <mxPoint x="143.5" y="560" as="sourcePoint" />
            <mxPoint x="216" y="650" as="targetPoint" />
          </mxGeometry>
        </mxCell>
        <mxCell id="2Ir9cTfWj3Ynbl9pCm2M-34" value="" style="endArrow=none;dashed=1;html=1;rounded=0;exitX=0.5;exitY=0;exitDx=0;exitDy=0;strokeColor=light-dark(#000000,#141414);fontColor=light-dark(#000000,#1A1A1A);entryX=0.5;entryY=1;entryDx=0;entryDy=0;" edge="1" parent="1" source="2Ir9cTfWj3Ynbl9pCm2M-37" target="2Ir9cTfWj3Ynbl9pCm2M-14">
          <mxGeometry width="50" height="50" relative="1" as="geometry">
            <mxPoint x="156" y="560" as="sourcePoint" />
            <mxPoint x="350" y="530" as="targetPoint" />
          </mxGeometry>
        </mxCell>
        <mxCell id="2Ir9cTfWj3Ynbl9pCm2M-35" value="" style="endArrow=none;dashed=1;html=1;rounded=0;exitX=0.75;exitY=0;exitDx=0;exitDy=0;strokeColor=light-dark(#000000,#141414);entryX=0.5;entryY=1;entryDx=0;entryDy=0;fontColor=light-dark(#000000,#1A1A1A);" edge="1" parent="1" source="2Ir9cTfWj3Ynbl9pCm2M-37" target="2Ir9cTfWj3Ynbl9pCm2M-14">
          <mxGeometry width="50" height="50" relative="1" as="geometry">
            <mxPoint x="168.5" y="560" as="sourcePoint" />
            <mxPoint x="456" y="610" as="targetPoint" />
          </mxGeometry>
        </mxCell>
      </root>
    </mxGraphModel>
  </diagram>
</mxfile>
